<svg width="100" height="100" viewBox="0 0 100 100" xmlns="http://www.w3.org/2000/svg">
  <defs>
    <pattern id="solar-pattern" x="0" y="0" width="40" height="40" patternUnits="userSpaceOnUse">
      <!-- Sun -->
      <circle cx="20" cy="20" r="6" fill="#F59E0B" opacity="0.4" />
      <circle cx="20" cy="20" r="3" fill="#F59E0B" opacity="0.6" />
      
      <!-- Rays -->
      <line x1="20" y1="8" x2="20" y2="12" stroke="#F59E0B" stroke-width="2" opacity="0.4" />
      <line x1="20" y1="28" x2="20" y2="32" stroke="#F59E0B" stroke-width="2" opacity="0.4" />
      <line x1="8" y1="20" x2="12" y2="20" stroke="#F59E0B" stroke-width="2" opacity="0.4" />
      <line x1="28" y1="20" x2="32" y2="20" stroke="#F59E0B" stroke-width="2" opacity="0.4" />
      
      <!-- Diagonal rays -->
      <line x1="12" y1="12" x2="15" y2="15" stroke="#F59E0B" stroke-width="2" opacity="0.4" />
      <line x1="25" y1="25" x2="28" y2="28" stroke="#F59E0B" stroke-width="2" opacity="0.4" />
      <line x1="12" y1="28" x2="15" y2="25" stroke="#F59E0B" stroke-width="2" opacity="0.4" />
      <line x1="25" y1="15" x2="28" y2="12" stroke="#F59E0B" stroke-width="2" opacity="0.4" />
      
      <!-- Solar Panels -->
      <rect x="0" y="0" width="8" height="8" rx="1" fill="#F59E0B" opacity="0.3" />
      <rect x="32" y="32" width="8" height="8" rx="1" fill="#F59E0B" opacity="0.3" />
      <rect x="0" y="32" width="8" height="8" rx="1" fill="#F59E0B" opacity="0.3" />
      <rect x="32" y="0" width="8" height="8" rx="1" fill="#F59E0B" opacity="0.3" />
    </pattern>
  </defs>
  <rect width="100%" height="100%" fill="url(#solar-pattern)" />
</svg> 